<svg xmlns="http://www.w3.org/2000/svg" width="84" height="84" viewBox="0 0 84 84"><g transform="translate(-782 -1606)"><circle cx="42" cy="42" r="42" transform="translate(782 1606)" fill="#f70b03"/><path d="M10.775,19.731A32.535,32.535,0,0,0,24.928,33.884l4.725-4.725a2.135,2.135,0,0,1,2.191-.515,24.5,24.5,0,0,0,7.667,1.224,2.154,2.154,0,0,1,2.148,2.148v7.5a2.154,2.154,0,0,1-2.148,2.148A36.508,36.508,0,0,1,3,5.148,2.154,2.154,0,0,1,5.148,3h7.517a2.154,2.154,0,0,1,2.148,2.148,24.4,24.4,0,0,0,1.224,7.667,2.155,2.155,0,0,1-.537,2.191Z" transform="translate(802 1626)" fill="#fff"/></g></svg>