<svg xmlns="http://www.w3.org/2000/svg" width="15.268" height="15.268" viewBox="0 0 15.268 15.268"><path d="M7.634,1.357a23.407,23.407,0,0,1,3.054.085A3.934,3.934,0,0,1,12.13,1.7a2.979,2.979,0,0,1,1.442,1.442,3.934,3.934,0,0,1,.254,1.442c0,.763.085,1.018.085,3.054a23.407,23.407,0,0,1-.085,3.054,3.934,3.934,0,0,1-.254,1.442,2.979,2.979,0,0,1-1.442,1.442,3.934,3.934,0,0,1-1.442.254c-.763,0-1.018.085-3.054.085a23.407,23.407,0,0,1-3.054-.085,3.934,3.934,0,0,1-1.442-.254A2.979,2.979,0,0,1,1.7,12.13a3.934,3.934,0,0,1-.254-1.442c0-.763-.085-1.018-.085-3.054A23.407,23.407,0,0,1,1.442,4.58,3.934,3.934,0,0,1,1.7,3.138,3.046,3.046,0,0,1,2.29,2.29,1.434,1.434,0,0,1,3.138,1.7,3.934,3.934,0,0,1,4.58,1.442a23.407,23.407,0,0,1,3.054-.085M7.634,0A25.062,25.062,0,0,0,4.5.085,5.237,5.237,0,0,0,2.629.424a3.321,3.321,0,0,0-1.357.848A3.321,3.321,0,0,0,.424,2.629,3.865,3.865,0,0,0,.085,4.5,25.062,25.062,0,0,0,0,7.634a25.062,25.062,0,0,0,.085,3.138,5.237,5.237,0,0,0,.339,1.866A3.321,3.321,0,0,0,1.272,14a3.321,3.321,0,0,0,1.357.848,5.237,5.237,0,0,0,1.866.339,25.062,25.062,0,0,0,3.138.085,25.062,25.062,0,0,0,3.138-.085,5.237,5.237,0,0,0,1.866-.339,3.559,3.559,0,0,0,2.205-2.205,5.237,5.237,0,0,0,.339-1.866c0-.848.085-1.1.085-3.138A25.062,25.062,0,0,0,15.183,4.5a5.237,5.237,0,0,0-.339-1.866A3.321,3.321,0,0,0,14,1.272,3.321,3.321,0,0,0,12.638.424,5.237,5.237,0,0,0,10.772.085,25.062,25.062,0,0,0,7.634,0m0,3.732a3.839,3.839,0,0,0-3.9,3.9,3.9,3.9,0,1,0,3.9-3.9m0,6.446A2.5,2.5,0,0,1,5.089,7.634,2.5,2.5,0,0,1,7.634,5.089a2.5,2.5,0,0,1,2.545,2.545,2.5,2.5,0,0,1-2.545,2.545m4.071-7.549a.933.933,0,1,0,.933.933.941.941,0,0,0-.933-.933" fill-rule="evenodd"/></svg>