<svg xmlns="http://www.w3.org/2000/svg" width="15.268" height="12.384" viewBox="0 0 15.268 12.384"><path d="M42.835,14.384a8.827,8.827,0,0,0,8.906-8.906V5.054a6.9,6.9,0,0,0,1.527-1.612,7.041,7.041,0,0,1-1.781.509,3.3,3.3,0,0,0,1.357-1.7,7.78,7.78,0,0,1-1.951.763A3.029,3.029,0,0,0,48.6,2a3.187,3.187,0,0,0-3.138,3.138,1.654,1.654,0,0,0,.085.679A8.77,8.77,0,0,1,39.1,2.509a3.248,3.248,0,0,0-.424,1.612A3.37,3.37,0,0,0,40.036,6.75a2.86,2.86,0,0,1-1.442-.424h0a3.1,3.1,0,0,0,2.545,3.054,2.615,2.615,0,0,1-.848.085,1.443,1.443,0,0,1-.594-.085,3.213,3.213,0,0,0,2.969,2.205,6.4,6.4,0,0,1-3.9,1.357A2.348,2.348,0,0,1,38,12.857a8.006,8.006,0,0,0,4.835,1.527" transform="translate(-38 -2)" fill-rule="evenodd"/></svg>